<?xml version="1.0" standalone="no"?>
<!DOCTYPE svg PUBLIC "-//W3C//DTD SVG 20010904//EN"
 "http://www.w3.org/TR/2001/REC-SVG-20010904/DTD/svg10.dtd">
<svg version="1.0" xmlns="http://www.w3.org/2000/svg"
 width="200.000000pt" height="200.000000pt" viewBox="0 0 200.000000 200.000000"
 preserveAspectRatio="xMidYMid meet">
<metadata>
Created by potrace 1.10, written by Peter Selinger 2001-2011
</metadata>
<g transform="translate(0.000000,200.000000) scale(0.100000,-0.100000)"
fill="#006b60" stroke="none">
<path d="M972 1797 c-7 -8 -8 -26 -2 -52 10 -46 -7 -75 -46 -75 -12 0 -47 -13
-79 -30 -31 -16 -61 -29 -68 -27 -6 1 -24 19 -39 40 -29 39 -46 45 -66 25 -21
-21 -13 -47 23 -70 43 -29 47 -44 19 -88 -12 -19 -28 -55 -35 -80 -18 -66 -25
-71 -78 -64 -37 5 -50 2 -61 -11 -24 -29 0 -50 58 -50 59 0 64 -4 81 -65 7
-25 23 -61 35 -80 28 -44 24 -59 -19 -88 -37 -23 -45 -51 -21 -71 20 -17 51 1
70 38 19 35 37 35 104 -1 30 -15 66 -28 81 -28 37 0 52 -28 41 -76 -10 -42 1
-64 30 -64 29 0 40 22 30 64 -10 46 4 76 36 76 11 0 48 14 81 30 34 17 67 29
74 28 7 -2 26 -20 41 -40 29 -40 46 -46 66 -26 21 21 13 47 -23 70 -40 27 -47
53 -24 88 9 14 25 50 35 80 9 30 19 57 21 60 3 3 30 5 60 5 63 0 88 20 63 50
-11 13 -24 16 -61 11 -54 -7 -60 -2 -85 69 -9 28 -25 62 -35 76 -24 34 -16 59
27 87 38 25 43 56 11 76 -14 9 -24 4 -56 -32 -21 -23 -43 -42 -47 -42 -5 0
-36 14 -68 30 -32 17 -68 30 -80 30 -32 0 -46 30 -36 76 10 42 -1 64 -30 64
-10 0 -22 -6 -28 -13z m38 -42 c0 -19 -4 -35 -10 -35 -5 0 -10 16 -10 35 0 19
5 35 10 35 6 0 10 -16 10 -35z m3 -72 c-7 -2 -19 -2 -25 0 -7 3 -2 5 12 5 14
0 19 -2 13 -5z m-273 -74 c0 -5 -13 0 -30 13 -31 23 -35 30 -23 42 8 8 53 -39
53 -55z m555 16 c-37 -31 -43 -25 -15 15 17 24 25 29 34 20 8 -9 3 -18 -19
-35z m-161 0 c211 -100 235 -401 43 -533 -124 -86 -286 -75 -390 26 -132 127
-136 320 -10 445 96 97 233 121 357 62z m-364 -40 c-7 -9 -15 -13 -17 -11 -7
7 7 26 19 26 6 0 6 -6 -2 -15z m475 4 c11 -17 -1 -21 -15 -4 -8 9 -8 15 -2 15
6 0 14 -5 17 -11z m97 -251 c-9 -9 -12 -7 -12 12 0 19 3 21 12 12 9 -9 9 -15
0 -24z m-723 13 c10 -7 5 -11 -17 -16 -34 -7 -56 0 -47 16 8 11 46 12 64 0z
m51 -6 c0 -8 -4 -15 -10 -15 -5 0 -10 7 -10 15 0 8 5 15 10 15 6 0 10 -7 10
-15z m775 6 c9 -16 -13 -23 -47 -16 -22 5 -27 9 -17 16 18 12 56 11 64 0z
m-669 -258 c-7 -7 -26 7 -26 19 0 6 6 6 15 -2 9 -7 13 -15 11 -17z m469 8 c-3
-6 -11 -11 -17 -11 -6 0 -6 6 2 15 14 17 26 13 15 -4z m-525 -51 c-17 -24 -25
-29 -34 -20 -8 9 -3 18 19 35 37 31 43 25 15 -15z m600 -10 c0 -22 -20 -18
-39 9 -29 40 -26 46 9 21 17 -12 30 -25 30 -30z m-307 -37 c-7 -2 -19 -2 -25
0 -7 3 -2 5 12 5 14 0 19 -2 13 -5z m-3 -63 c0 -22 -4 -40 -10 -40 -5 0 -10
18 -10 40 0 22 5 40 10 40 6 0 10 -18 10 -40z"/>
<path d="M885 1597 c-68 -32 -131 -105 -151 -175 -68 -233 183 -432 397 -316
92 51 139 132 139 241 -1 106 -47 187 -137 240 -67 39 -178 44 -248 10z m86
-4 c1 -13 1 -127 0 -145 -2 -25 -39 -11 -56 21 -7 15 -25 33 -39 41 -40 21
-33 45 22 68 50 23 71 27 73 15z m142 -20 c43 -18 48 -44 14 -62 -13 -7 -31
-25 -40 -41 -19 -31 -56 -47 -58 -24 0 8 -1 41 -1 74 0 33 1 65 1 71 1 12 26
6 84 -18z m-103 -53 c0 -22 -4 -40 -10 -40 -5 0 -10 18 -10 40 0 22 5 40 10
40 6 0 10 -18 10 -40z m-184 -7 c-10 -10 -19 5 -10 18 6 11 8 11 12 0 2 -7 1
-15 -2 -18z m359 7 c3 -5 1 -10 -4 -10 -6 0 -11 5 -11 10 0 6 2 10 4 10 3 0 8
-4 11 -10z m-289 -59 c9 -12 11 -21 6 -21 -12 0 -62 50 -62 62 0 13 39 -15 56
-41z m-38 -11 c29 -28 52 -53 52 -56 0 -3 -7 -12 -15 -20 -11 -12 -19 -13 -36
-4 -12 7 -36 9 -54 6 -18 -4 -39 -4 -48 0 -14 5 -14 10 -2 44 18 51 34 80 44
80 4 0 31 -23 59 -50z m287 26 c-15 -23 -43 -41 -52 -33 -5 6 45 57 57 57 6 0
4 -10 -5 -24z m84 -25 c24 -57 25 -63 10 -78 -8 -8 -18 -8 -34 -1 -17 7 -33 7
-55 -1 -25 -8 -35 -8 -46 3 -18 19 -10 38 26 60 17 9 30 21 30 26 0 11 29 40
39 40 5 0 18 -22 30 -49z m-179 -51 c33 -33 30 -75 -6 -107 -34 -31 -60 -29
-96 7 -24 25 -29 36 -24 58 14 58 86 82 126 42z m30 10 c0 -5 -2 -10 -4 -10
-3 0 -8 5 -11 10 -3 6 -1 10 4 10 6 0 11 -4 11 -10z m-325 -59 c3 -5 1 -12 -5
-16 -5 -3 -10 1 -10 9 0 18 6 21 15 7z m103 0 c10 -6 6 -10 -13 -13 -36 -7
-72 2 -53 13 17 11 49 11 66 0z m52 -7 c0 -8 -5 -12 -10 -9 -6 4 -8 11 -5 16
9 14 15 11 15 -7z m195 7 c3 -5 1 -12 -5 -16 -5 -3 -10 1 -10 9 0 18 6 21 15
7z m100 0 c20 -8 20 -8 -2 -15 -12 -4 -34 -4 -49 0 -25 7 -26 8 -9 15 25 10
35 10 60 0z m55 -7 c0 -8 -5 -12 -10 -9 -6 4 -8 11 -5 16 9 14 15 11 15 -7z
m-405 -24 c22 8 32 8 42 -3 18 -18 9 -39 -27 -60 -16 -10 -31 -26 -35 -36 -16
-50 -55 -29 -76 41 -16 50 -1 71 40 57 18 -7 37 -6 56 1z m343 -3 c43 2 52 0
52 -15 -1 -22 -35 -98 -48 -106 -10 -6 -52 30 -52 44 0 4 -11 13 -24 20 -14 7
-28 19 -31 28 -8 21 15 45 34 35 9 -4 40 -7 69 -6z m-263 -37 c3 -5 1 -10 -4
-10 -6 0 -11 5 -11 10 0 6 2 10 4 10 3 0 8 -4 11 -10z m145 0 c0 -5 -5 -10
-11 -10 -5 0 -7 5 -4 10 3 6 8 10 11 10 2 0 4 -4 4 -10z m-107 -100 c1 -40 -1
-76 -4 -81 -8 -14 -99 22 -113 43 -9 15 -4 23 27 49 20 17 37 37 37 44 0 11
37 26 48 19 2 -2 5 -35 5 -74z m37 70 c0 -5 -4 -10 -10 -10 -5 0 -10 5 -10 10
0 6 5 10 10 10 6 0 10 -4 10 -10z m75 -29 c7 -15 25 -33 39 -41 32 -17 33 -33
4 -52 -29 -19 -90 -40 -96 -33 -4 4 -6 94 -3 147 1 25 39 11 56 -21z m-186 10
c-13 -20 -48 -45 -55 -38 -2 2 7 16 20 30 29 31 52 37 35 8z m235 -8 c28 -28
29 -37 3 -27 -18 7 -52 54 -39 54 5 0 21 -12 36 -27z m-124 -53 c0 -22 -4 -40
-10 -40 -5 0 -10 18 -10 40 0 22 5 40 10 40 6 0 10 -18 10 -40z m-180 0 c0 -5
-2 -10 -4 -10 -3 0 -8 5 -11 10 -3 6 -1 10 4 10 6 0 11 -4 11 -10z m360 6 c0
-3 -4 -8 -10 -11 -5 -3 -10 -1 -10 4 0 6 5 11 10 11 6 0 10 -2 10 -4z"/>
<path d="M955 1380 c-35 -39 6 -99 59 -86 16 4 31 17 37 33 22 58 -54 100 -96
53z m74 -18 c20 -38 -31 -71 -59 -37 -6 8 -9 23 -5 35 8 25 51 27 64 2z"/>
</g>
</svg>
